<?xml version="1.0" standalone="no"?>
<!DOCTYPE svg PUBLIC "-//W3C//DTD SVG 20010904//EN"
 "http://www.w3.org/TR/2001/REC-SVG-20010904/DTD/svg10.dtd">
<svg version="1.0" xmlns="http://www.w3.org/2000/svg"
 width="1280.000000pt" height="1280.000000pt" viewBox="0 0 1280.000000 1280.000000"
 preserveAspectRatio="xMidYMid meet">
<metadata>
Created by potrace 1.11, written by Peter Selinger 2001-2013
</metadata>
<g transform="translate(0.000000,1280.000000) scale(0.100000,-0.100000)"
fill="#000000" stroke="none">
<path d="M8710 12782 c-100 -26 -162 -76 -195 -156 -26 -61 -22 -66 33 -52 61
17 144 7 253 -29 89 -30 100 -39 155 -130 81 -134 117 -269 118 -445 1 -189
-27 -277 -139 -435 -105 -148 -298 -329 -436 -408 l-45 -27 -115 49 c-259 109
-520 184 -864 246 -60 11 -232 34 -300 40 -38 4 -77 8 -87 10 -132 26 -966 26
-1106 0 -10 -1 -53 -6 -97 -10 -75 -6 -269 -30 -325 -40 -14 -3 -45 -7 -70
-11 -74 -9 -346 -64 -479 -95 -790 -187 -1542 -553 -2162 -1052 -186 -149
-286 -240 -481 -437 -160 -161 -210 -214 -319 -340 -544 -627 -963 -1428
-1178 -2251 -61 -236 -126 -571 -145 -754 -9 -84 -16 -148 -21 -190 -20 -176
-27 -757 -12 -945 4 -47 10 -116 12 -155 3 -38 8 -83 10 -100 3 -16 7 -55 11
-85 33 -299 175 -877 298 -1214 73 -200 263 -606 387 -826 93 -165 263 -440
311 -505 5 -5 55 -73 112 -150 164 -221 306 -385 511 -590 214 -215 240 -238
426 -391 190 -156 264 -211 479 -354 365 -243 795 -460 1185 -600 66 -23 129
-46 140 -51 61 -25 419 -126 555 -156 114 -25 313 -63 360 -69 25 -3 52 -7 60
-9 8 -2 56 -9 105 -15 50 -6 104 -13 120 -15 34 -4 109 -11 240 -22 188 -15
834 -7 930 12 11 2 52 7 90 10 60 5 234 28 300 40 11 1 36 6 55 9 19 3 46 8
60 10 22 4 132 27 200 41 175 38 445 117 645 187 368 130 810 347 1205 591 63
39 117 74 120 77 3 3 48 34 100 70 390 263 762 604 1037 945 430 536 739 1072
986 1710 54 139 123 342 153 452 29 106 56 208 59 223 2 8 10 42 18 75 29 110
66 315 101 555 3 19 8 69 11 110 4 41 8 80 10 87 27 82 26 842 0 1058 -2 17
-7 57 -10 90 -7 70 -14 140 -20 175 -2 14 -6 45 -10 70 -18 125 -50 287 -96
480 -43 183 -232 758 -329 1005 -93 234 -282 577 -472 855 -237 347 -434 586
-705 859 -46 46 -83 85 -83 87 0 3 20 29 44 59 59 72 137 205 190 324 179 398
213 812 89 1095 -43 99 -128 219 -204 290 -85 79 -292 221 -334 230 -72 14
-141 19 -315 20 -174 2 -185 3 -188 22 -16 88 -68 271 -94 328 -92 203 -277
406 -433 475 -132 58 -292 75 -415 43z m-3160 -2036 c0 -2 -7 -7 -16 -10 -8
-3 -12 -2 -9 4 6 10 25 14 25 6z m1074 -78 c-20 -65 -40 -89 -97 -113 -49 -20
-47 -11 3 15 38 19 56 45 74 103 3 9 10 17 16 17 7 0 9 -9 4 -22z m-1399 2
c-3 -5 -12 -10 -18 -10 -7 0 -6 4 3 10 19 12 23 12 15 0z m-40 -10 c-3 -5 -12
-10 -18 -10 -7 0 -6 4 3 10 19 12 23 12 15 0z m-40 -10 c-3 -5 -16 -10 -28 -9
-20 1 -20 2 3 9 14 4 26 8 28 9 2 1 0 -3 -3 -9z m-125 -34 c0 -2 -9 -6 -20 -9
-11 -3 -18 -1 -14 4 5 9 34 13 34 5z m-85 -26 c-11 -5 -27 -9 -35 -9 -9 0 -8
4 5 9 11 5 27 9 35 9 9 0 8 -4 -5 -9z m-79 -19 c-6 -9 -46 -22 -46 -15 0 3 10
9 23 14 29 11 29 11 23 1z m-81 -26 c-45 -19 -81 -29 -72 -19 9 9 74 32 92 32
6 0 -3 -5 -20 -13z m1602 -21 c-3 -3 -12 -4 -19 -1 -8 3 -5 6 6 6 11 1 17 -2
13 -5z m-1767 -43 c-47 -21 -121 -56 -165 -78 -44 -22 -102 -48 -130 -59 -81
-29 -420 -204 -555 -285 -157 -95 -482 -317 -510 -349 -3 -3 -41 -35 -85 -70
-44 -36 -100 -83 -124 -105 -25 -22 -77 -69 -115 -104 -597 -541 -1085 -1328
-1346 -2172 -100 -321 -179 -697 -206 -974 -3 -38 -8 -78 -10 -88 -23 -124
-23 -670 0 -907 8 -85 27 -240 32 -264 2 -11 9 -51 14 -88 12 -82 52 -269 85
-398 19 -76 23 -89 70 -237 20 -62 35 -123 33 -135 -8 -53 -141 409 -189 657
-102 526 -112 1127 -28 1675 15 98 19 124 24 140 2 8 7 31 10 50 13 78 49 232
82 355 209 782 597 1514 1103 2080 139 156 419 418 605 566 158 126 380 278
575 394 115 68 464 246 509 260 13 4 87 37 165 74 211 100 210 100 226 100 8
0 -23 -17 -70 -38z m1700 22 c-315 -137 -559 -284 -885 -535 l-159 -123 -98
-145 c-96 -144 -233 -400 -284 -535 -15 -38 -45 -142 -68 -229 -46 -174 -79
-232 -40 -69 53 221 94 333 197 536 65 130 263 443 290 459 7 4 68 50 137 104
158 122 291 217 417 295 99 63 348 195 413 219 19 8 49 19 65 26 17 7 35 12
40 12 6 0 -6 -6 -25 -15z m-3450 -2136 c-127 -125 -175 -180 -215 -252 -48
-86 -69 -172 -61 -262 7 -87 15 -105 100 -212 43 -54 71 -100 81 -133 19 -64
19 -74 0 -58 -8 7 -15 22 -15 33 0 34 -36 98 -91 162 -84 100 -94 124 -94 245
1 97 3 110 33 174 18 39 51 95 74 125 48 64 256 271 272 271 6 0 -32 -42 -84
-93z m2094 66 c3 -10 8 -31 10 -48 3 -16 10 -54 16 -84 5 -29 10 -70 10 -91
l0 -37 -52 -2 c-29 -1 -71 -4 -93 -6 -22 -2 -94 -7 -160 -10 -66 -4 -142 -8
-170 -10 -27 -2 -108 -6 -180 -10 -71 -4 -143 -9 -160 -11 -16 -2 -55 -6 -85
-9 -216 -23 -378 -61 -497 -116 -46 -21 -98 -25 -108 -9 -3 6 3 10 15 10 11 0
47 11 80 25 125 52 308 94 485 110 39 4 84 8 100 10 39 5 161 13 300 20 232
12 454 25 485 30 23 3 23 58 2 163 -11 50 -16 92 -11 92 4 0 10 -8 13 -17z
m1713 -166 c5 -3 42 -8 83 -12 41 -4 78 -9 81 -11 4 -2 24 -6 45 -9 47 -7 287
-58 404 -87 74 -17 170 -59 170 -74 0 -2 -18 5 -40 16 -57 29 -429 115 -585
136 -27 3 -59 8 -70 10 -58 11 -199 18 -352 18 -95 -1 -173 2 -173 7 0 4 21 9
48 11 65 5 380 0 389 -5z m-567 -86 c19 -5 58 -12 85 -16 28 -3 61 -8 75 -10
39 -6 235 -24 335 -30 50 -4 113 -8 140 -10 28 -2 100 -7 160 -10 61 -3 128
-8 150 -10 22 -3 69 -7 105 -10 75 -6 170 -24 170 -32 0 -5 -43 -1 -165 12
-16 2 -68 6 -115 10 -47 3 -107 8 -135 10 -27 3 -102 7 -165 10 -63 3 -128 8
-145 10 -16 2 -72 7 -122 10 -51 3 -103 8 -115 10 -13 2 -50 6 -83 10 -32 4
-66 8 -75 10 -108 19 -150 29 -150 36 0 11 6 11 50 0z m-2700 -61 c13 -8 12
-10 -3 -10 -40 0 -57 -107 -23 -149 8 -12 8 -13 -2 -7 -25 15 -44 68 -39 108
8 60 32 81 67 58z m-270 -40 c0 -5 -10 -10 -23 -10 -18 0 -25 -9 -36 -44 -14
-47 -6 -72 56 -170 14 -21 20 -36 15 -32 -13 8 -89 136 -97 165 -4 13 -2 41 5
62 12 35 17 39 47 39 18 0 33 -4 33 -10z m4729 -93 c36 -58 40 -104 17 -175
-29 -86 -67 -121 -184 -172 -175 -76 -221 -100 -224 -118 -3 -15 -6 -14 -16 5
-12 21 -10 25 20 43 18 11 67 34 108 51 200 83 235 108 269 197 26 66 27 112
1 162 -25 48 -19 52 9 7z m-4387 -208 c84 -36 233 -76 316 -84 31 -4 71 -8 87
-10 17 -2 38 -4 48 -4 10 -1 15 -5 12 -11 -5 -9 -88 -6 -145 5 -14 2 -40 7
-58 10 -141 23 -361 113 -409 168 -12 14 -2 10 29 -12 26 -17 80 -46 120 -62z
m-136 -118 c218 -86 474 -148 804 -195 129 -18 272 -33 405 -42 55 -3 102 -8
105 -10 9 -4 508 -17 690 -17 155 0 655 11 820 18 454 20 585 27 594 33 5 3 6
0 2 -6 -5 -9 -34 -16 -116 -27 -14 -2 -108 -7 -210 -11 -102 -4 -210 -8 -240
-10 -465 -22 -1252 -22 -1540 1 -626 50 -968 117 -1332 258 l-68 26 15 -36
c17 -40 13 -57 -5 -22 -13 24 -31 79 -25 79 1 0 47 -18 101 -39z m4298 -258
c15 -67 -4 -196 -69 -473 -19 -80 -37 -167 -41 -195 -4 -27 -13 -59 -21 -70
-13 -18 -14 -14 -8 40 3 33 24 138 46 233 57 249 71 327 72 414 2 79 11 100
21 51z m-3909 -111 c38 -19 131 -32 335 -47 336 -25 516 -58 572 -105 20 -17
15 -16 -38 5 -62 25 -181 49 -294 59 -36 4 -85 9 -110 11 -25 3 -79 7 -120 10
-221 16 -296 27 -341 50 -40 21 -129 29 -130 12 -1 -7 -2 -31 -3 -54 -1 -47
-12 -65 -22 -37 -4 10 -16 31 -26 46 -23 33 -16 65 15 72 41 8 122 -2 162 -22z
m-859 -44 c45 -88 101 -283 119 -415 3 -21 8 -47 10 -59 3 -12 7 -39 10 -60 3
-21 8 -44 10 -51 2 -6 7 -38 11 -70 3 -32 8 -61 11 -66 2 -4 -19 -5 -49 -3
-29 3 -74 5 -100 5 l-47 1 -5 43 c-54 412 -101 652 -139 704 -11 15 2 18 79
18 l66 -1 24 -46z m5485 -189 c203 -299 213 -670 28 -1005 -46 -84 -136 -213
-252 -359 -197 -251 -519 -535 -843 -744 -98 -63 -100 -66 -149 -155 -149
-270 -272 -391 -442 -436 -46 -12 -45 -10 -68 -123 -20 -98 -63 -231 -111
-342 l-36 -84 -77 -30 c-76 -29 -103 -38 -138 -46 -10 -3 -52 -13 -94 -24 -42
-10 -94 -21 -115 -25 -22 -3 -50 -8 -64 -10 -32 -7 -91 -14 -160 -21 -30 -3
-80 -8 -110 -11 -87 -10 -436 -12 -540 -3 -162 13 -216 20 -355 44 -114 20
-259 65 -365 113 -50 23 -120 72 -103 72 7 0 15 -5 19 -11 9 -16 134 -71 229
-102 289 -94 778 -128 1203 -82 162 17 377 61 488 99 166 57 157 51 191 130
58 135 73 180 104 310 17 72 32 136 34 142 2 7 34 22 71 33 164 53 266 159
419 432 42 75 57 91 109 125 97 61 310 218 425 312 107 88 365 338 414 402
257 333 322 437 376 600 92 275 55 573 -98 798 -23 34 -39 62 -37 62 3 0 24
-27 47 -61z m-4551 -24 c91 -20 181 -38 200 -41 19 -3 42 -8 50 -11 8 -3 94
-7 190 -8 157 -2 179 -4 215 -23 44 -23 43 -28 -2 -11 -15 6 -104 12 -198 13
-175 2 -215 9 -552 85 l-83 19 -1 -22 c-1 -11 -1 -39 -1 -61 0 -33 -2 -37 -11
-24 -7 9 -11 40 -11 70 2 66 1 61 22 55 9 -3 91 -21 182 -41z m4360 -135 c9
-6 -18 -9 -70 -8 -176 1 -247 -40 -383 -222 -96 -129 -137 -168 -219 -210 -68
-34 -71 -38 -84 -85 -29 -113 -143 -426 -244 -670 -39 -96 -49 -117 -83 -195
-81 -182 -223 -543 -278 -705 -21 -65 -47 -111 -56 -101 -13 13 171 505 277
741 5 11 21 49 35 85 14 36 30 72 35 81 11 20 116 280 165 409 41 108 106 298
129 381 13 48 20 58 43 64 80 19 149 79 253 220 37 50 84 107 105 128 47 46
127 86 192 96 56 8 161 3 183 -9z m-4325 -115 c42 -4 131 -13 200 -20 22 -3
72 -7 110 -10 39 -4 76 -8 83 -10 6 -3 72 -7 145 -11 135 -6 187 -16 222 -42
l20 -14 -20 7 c-50 18 -88 24 -200 29 -125 7 -150 9 -300 25 -230 26 -347 37
-386 36 -20 0 -24 -5 -24 -29 -1 -16 -6 -31 -13 -34 -8 -2 -12 11 -12 42 l0
46 68 -5 c37 -3 85 -7 107 -10z m-70 -235 c87 -21 260 -42 455 -55 268 -18
470 -47 470 -67 0 -6 -11 -7 -26 -4 -14 4 -69 13 -122 21 -91 13 -130 17 -327
30 -112 8 -287 25 -305 30 -8 2 -32 6 -52 9 -21 3 -57 10 -80 16 -24 5 -46 10
-50 10 -6 0 13 -94 28 -135 5 -14 4 -17 -3 -10 -11 11 -38 93 -46 138 -5 30
-1 31 58 17z m-632 -232 c8 -18 26 -62 40 -98 15 -36 47 -114 72 -175 83 -196
117 -295 100 -295 -8 0 -15 6 -15 13 0 17 -74 210 -138 362 -77 183 -93 225
-82 225 5 0 16 -15 23 -32z m782 -48 c86 -8 156 -14 310 -25 254 -19 485 -55
485 -77 0 -5 -8 -7 -17 -4 -27 8 -181 34 -238 40 -96 11 -247 24 -360 31 -49
3 -103 8 -120 10 -16 2 -60 7 -97 10 l-68 6 0 -32 c0 -35 -17 -30 -20 6 -5 51
-12 49 125 35z m-65 -131 c0 -5 -4 -9 -10 -9 -5 0 -10 8 -10 18 0 10 -3 22 -7
28 -5 5 0 1 10 -9 9 -11 17 -23 17 -28z m150 -133 c54 -7 112 -13 205 -21 124
-11 168 -14 250 -20 44 -4 91 -8 105 -10 85 -12 110 -18 106 -24 -3 -4 -53 -1
-113 5 -59 7 -153 15 -208 18 -55 4 -113 8 -130 11 -16 2 -62 7 -100 10 -39 3
-80 7 -90 9 -95 18 -123 17 -128 -1 -3 -15 -5 -14 -14 7 -15 34 -9 39 34 30
21 -5 58 -11 83 -14z m-57 -96 c3 -14 1 -20 -6 -17 -7 2 -14 14 -15 26 -4 28
13 20 21 -9z m155 -144 c48 -8 119 -17 157 -21 39 -3 93 -7 120 -10 28 -2 84
-7 125 -10 116 -8 158 -16 177 -32 17 -13 17 -14 -2 -9 -34 9 -77 14 -165 21
-47 3 -105 8 -130 10 -25 2 -79 7 -120 11 -41 3 -82 8 -92 9 -9 2 -38 7 -65
11 -26 4 -58 11 -70 15 -28 10 -31 -10 -9 -62 25 -62 29 -82 15 -77 -6 2 -14
15 -16 29 -2 13 -12 48 -23 77 -24 63 -24 66 -5 58 8 -3 54 -12 103 -20z
m-668 -241 c0 -29 46 -135 89 -204 61 -100 90 -231 55 -245 -9 -4 -19 -4 -22
-1 -3 3 0 5 6 5 16 0 15 55 -3 112 -7 26 -41 98 -74 160 -64 121 -90 198 -65
198 8 0 14 -10 14 -25z m695 -78 c28 -89 27 -87 18 -87 -4 0 -16 26 -27 58
-28 86 -29 92 -20 92 5 0 18 -28 29 -63z m165 22 c85 -17 137 -21 274 -20 173
2 223 -6 248 -37 12 -16 11 -16 -6 -2 -15 12 -57 15 -210 17 -149 1 -214 6
-296 22 -58 12 -120 21 -137 21 -18 0 -33 5 -33 10 0 15 45 12 160 -11z m12
-274 c80 -14 123 -16 503 -29 161 -6 245 -16 245 -29 0 -6 -18 -7 -47 -3 -27
4 -127 9 -223 11 -293 8 -405 16 -477 35 -20 5 -35 5 -39 -1 -8 -13 5 -87 17
-95 5 -3 14 -15 20 -27 9 -19 8 -19 -11 3 -45 52 -71 160 -36 147 8 -3 30 -8
48 -12z m51 -297 c14 -78 20 -98 30 -98 6 0 8 -2 5 -5 -11 -11 -38 8 -38 27 0
10 -6 31 -13 46 -12 24 -13 36 -8 57 4 17 20 0 24 -27z m-2353 -151 c0 -20
-40 -54 -84 -72 -52 -22 -56 -13 -5 9 23 10 49 31 58 47 17 31 31 38 31 16z
m2570 -72 c19 -2 73 -6 120 -10 199 -14 290 -23 325 -30 11 -2 32 -4 48 -4 15
-1 27 -6 27 -12 0 -7 -15 -9 -42 -5 -24 3 -72 8 -108 11 -36 3 -85 8 -110 10
-25 2 -88 7 -140 10 -52 3 -109 8 -126 10 -16 2 -58 7 -93 11 l-63 6 3 -43 c2
-27 -1 -44 -9 -47 -8 -2 -12 13 -12 53 l0 58 73 -8 c39 -4 88 -8 107 -10z
m-115 -260 c-2 -40 3 -46 68 -70 26 -10 46 -20 43 -22 -2 -2 -33 8 -68 22
l-65 26 2 42 c3 51 3 49 14 43 5 -3 8 -22 6 -41z m152 -101 c-3 -3 -12 -4 -19
-1 -8 3 -5 6 6 6 11 1 17 -2 13 -5z m-166 -110 c134 -47 428 -104 619 -119 47
-4 92 -9 101 -10 9 -2 94 -7 190 -11 246 -10 290 -11 412 -13 76 -1 106 -4
101 -12 -6 -10 -333 -7 -539 6 -139 9 -239 16 -274 21 -20 2 -54 6 -76 8 -138
14 -351 58 -487 100 l-78 24 0 -34 c0 -19 9 -53 21 -75 11 -23 18 -43 16 -46
-10 -9 -57 110 -57 143 0 19 2 34 4 34 2 0 23 -7 47 -16z m-1616 -1801 c31
-69 76 -118 130 -145 34 -17 36 -18 10 -13 -59 13 -122 73 -159 152 -29 60
-30 63 -17 63 5 0 21 -26 36 -57z"/>
</g>
</svg>
